<svg xmlns="http://www.w3.org/2000/svg" width="512" height="512" viewBox="0 0 512 512" version="1.1">
	<path d="M 0 256.002 L 0 512.004 256.250 511.752 L 512.500 511.500 512.752 255.750 L 513.004 0 256.502 0 L 0 0 0 256.002 M 0.492 256.500 C 0.492 397.300, 0.608 454.751, 0.750 384.170 C 0.892 313.588, 0.892 198.388, 0.750 128.170 C 0.608 57.951, 0.492 115.700, 0.492 256.500 M 119.270 66.483 C 115.687 68.040, 112.010 73.258, 112.004 76.792 C 112.002 78.053, 112.712 82.553, 113.583 86.792 C 117.936 107.983, 126.347 123.971, 142.843 142.410 C 150.649 151.135, 156.123 161.091, 158.328 170.573 C 161.117 182.566, 164.219 184.991, 176.782 184.996 C 186.663 185.001, 191.167 183.385, 194.023 178.810 C 195.714 176.101, 195.976 174.537, 195.466 170.196 C 193.326 151.987, 184.150 133.033, 169.817 117.217 C 158.558 104.793, 153.142 95.017, 149.913 81.285 C 147.471 70.900, 146.001 68.316, 141.454 66.416 C 137.078 64.588, 123.535 64.628, 119.270 66.483 M 203.415 66.363 C 198.520 68.587, 196 72.544, 196 78.007 C 196 85.248, 200.399 100.999, 205.326 111.400 C 210.849 123.059, 215.656 130.153, 225.385 141 C 233.688 150.256, 239.914 161.476, 242.035 171 C 244.575 182.411, 248.082 185, 261 185 C 278.066 185, 281.840 178.996, 276.922 159.667 C 272.868 143.731, 265.122 130.059, 251.615 115 C 242.388 104.713, 236.689 94.218, 233.537 81.711 C 230.575 69.955, 230.359 69.468, 227.166 67.357 C 223.593 64.993, 207.877 64.336, 203.415 66.363 M 79 210.583 C 74.466 212.555, 69.385 217.463, 66.662 222.500 L 64.500 226.500 64.500 306.500 L 64.500 386.500 66.760 394.299 C 74.117 419.683, 92.274 437.880, 117.545 445.197 L 125.500 447.500 207 447.500 C 270.991 447.500, 289.736 447.216, 294.254 446.178 C 324.665 439.193, 347.822 413.287, 350.626 383.114 L 351.262 376.274 364.381 375.710 C 382.634 374.926, 395.614 371.009, 408.663 362.348 C 440.595 341.153, 454.253 301.632, 442.122 265.533 C 437.842 252.794, 432.076 243.860, 421.103 232.963 C 412.760 224.677, 410.122 222.740, 401 218.206 C 381.842 208.684, 398.147 209.537, 230.500 209.284 C 99.851 209.087, 82.090 209.239, 79 210.583 M 351 292.503 L 351 328.221 361.750 327.775 C 374.707 327.237, 379.620 325.364, 387.417 317.990 C 396.968 308.957, 400.740 296.339, 397.578 283.997 C 394.739 272.916, 388.694 265.485, 378 259.928 C 374.265 257.987, 371.588 257.521, 362.250 257.187 L 351 256.784 351 292.503" stroke="none" fill="black" fill-rule="evenodd"/>
</svg>